<svg width="18" height="18" viewBox="0 0 18 18" fill="none" xmlns="http://www.w3.org/2000/svg">
<path d="M8.60224 5.02193L9.99435 3.62981C10.2816 3.34231 10.6227 3.11422 10.9981 2.95857C11.3735 2.80291 11.7759 2.72275 12.1823 2.72266C12.5887 2.72256 12.9911 2.80254 13.3666 2.95802C13.7421 3.11349 14.0832 3.34143 14.3706 3.62879C14.658 3.91616 14.8859 4.25733 15.0414 4.63281C15.1969 5.00829 15.2768 5.41073 15.2767 5.81713C15.2766 6.22353 15.1965 6.62592 15.0408 7.00133C14.8852 7.37674 14.6571 7.7178 14.3696 8.00504L12.3808 9.99378C12.0936 10.2811 11.7525 10.5089 11.3772 10.6644C11.0018 10.8199 10.5995 10.8999 10.1932 10.8999C9.78695 10.8999 9.38465 10.8199 9.0093 10.6644C8.63395 10.5089 8.2929 10.2811 8.00562 9.99378" stroke="#6E7485" stroke-width="1.2" stroke-linecap="round" stroke-linejoin="round"/>
<path d="M9.39764 12.9756L8.00553 14.3678C7.71829 14.6553 7.37723 14.8834 7.00182 15.039C6.62641 15.1947 6.22401 15.2748 5.81762 15.2749C5.41122 15.275 5.00878 15.195 4.6333 15.0396C4.25782 14.8841 3.91665 14.6561 3.62928 14.3688C3.34192 14.0814 3.11398 13.7402 2.9585 13.3648C2.80303 12.9893 2.72305 12.5868 2.72314 12.1804C2.72324 11.774 2.8034 11.3716 2.95906 10.9962C3.11471 10.6208 3.3428 10.2798 3.6303 9.99253L5.61904 8.0038C5.90632 7.71651 6.24737 7.48863 6.62272 7.33315C6.99808 7.17768 7.40037 7.09766 7.80665 7.09766C8.21293 7.09766 8.61523 7.17768 8.99058 7.33315C9.36593 7.48863 9.70698 7.71651 9.99426 8.0038" stroke="#6E7485" stroke-width="1.2" stroke-linecap="round" stroke-linejoin="round"/>
</svg>
